<svg xmlns="http://www.w3.org/2000/svg" viewBox="0 0 128 128">
  <defs>
    <linearGradient id="gold" x1="0" y1="0" x2="1" y2="1">
      <stop offset="0" stop-color="#FFF3B0"/>
      <stop offset="0.25" stop-color="#FFD15A"/>
      <stop offset="0.55" stop-color="#FFB100"/>
      <stop offset="0.8" stop-color="#E39A00"/>
      <stop offset="1" stop-color="#FFF0A6"/>
    </linearGradient>
    <linearGradient id="glass" x1="0" y1="0" x2="0" y2="1">
      <stop offset="0" stop-color="rgba(255,255,255,0.75)"/>
      <stop offset="0.6" stop-color="rgba(255,255,255,0.10)"/>
      <stop offset="1" stop-color="rgba(255,255,255,0)"/>
    </linearGradient>
    <filter id="shadow" x="-20%" y="-20%" width="140%" height="140%">
      <feDropShadow dx="0" dy="6" stdDeviation="6" flood-color="#000" flood-opacity="0.25"/>
    </filter>
    <path id="shield" d="M64 10c18 12 32 10 44 12v35c0 30-18 52-44 61C38 109 20 87 20 57V22c12-2 26 0 44-12z"/>
    <path id="star" d="M64 38l6.8 13.8 15.2 2.2-11 10.7 2.6 15.1L64 73.5 50.4 80.6 53 65.5 42 54l15.2-2.2z"/>
  </defs>

  <g filter="url(#shadow)">
    <use href="#shield" fill="url(#gold)" stroke="rgba(0,0,0,0.18)" stroke-width="2"/>
    <path d="M24 24c14-2 26 0 40-10 14 10 26 8 40 10v10c-12-2-24 0-40-10-16 10-28 8-40 10z" fill="url(#glass)"/>
  </g>

  <use href="#star" fill="rgba(0,0,0,0.18)" transform="translate(1 1)" opacity="0.55"/>
  <use href="#star" fill="rgba(255,255,255,0.95)" opacity="0.55"/>
  <use href="#star" fill="url(#gold)"/>

  <g opacity="0.95">
    <use href="#star" transform="translate(34 84) scale(0.22)" fill="url(#gold)"/>
    <use href="#star" transform="translate(50 84) scale(0.22)" fill="url(#gold)"/>
    <use href="#star" transform="translate(66 84) scale(0.22)" fill="url(#gold)"/>
  </g>
</svg>
